<mxfile host="app.diagrams.net" modified="2024-03-22T03:52:24.538Z" agent="Mozilla/5.0 (Windows NT 10.0; Win64; x64) AppleWebKit/537.36 (KHTML, like Gecko) Chrome/122.0.0.0 Safari/537.36" version="24.0.7" etag="bFx9k-kl4b8YIWWRgLty" type="github">
  <diagram name="第 1 页" id="iIBfwILoBA9SZZn_XmiC">
    <mxGraphModel>
      <root>
        <mxCell id="0" />
        <mxCell id="1" parent="0" />
      </root>
    </mxGraphModel>
  </diagram>
</mxfile>
